<mxfile host="65bd71144e">
    <diagram id="0o-1ta-959Qgtv4jV09g" name="Page-1">
        <mxGraphModel dx="2956" dy="1483" grid="1" gridSize="10" guides="1" tooltips="1" connect="1" arrows="1" fold="1" page="1" pageScale="1" pageWidth="850" pageHeight="1100" math="0" shadow="0">
            <root>
                <mxCell id="0"/>
                <mxCell id="1" parent="0"/>
                <mxCell id="2" value="" style="shape=ext;double=1;rounded=1;whiteSpace=wrap;html=1;arcSize=1;" vertex="1" parent="1">
                    <mxGeometry x="-821" y="120" width="1640" height="950" as="geometry"/>
                </mxCell>
                <mxCell id="4" value="&lt;font style=&quot;font-size: 18px;&quot;&gt;&lt;u&gt;&lt;b&gt;Inventory&lt;/b&gt;&lt;/u&gt;&lt;/font&gt;" style="shape=ext;double=1;rounded=0;whiteSpace=wrap;html=1;" vertex="1" parent="1">
                    <mxGeometry x="-127" y="20" width="320" height="50" as="geometry"/>
                </mxCell>
                <mxCell id="6" value="&lt;pre style=&quot;border: 0px; font-style: normal; font-variant-ligatures: normal; font-variant-caps: normal; font-variant-numeric: inherit; font-variant-east-asian: inherit; font-weight: 400; font-stretch: inherit; font-size: 1px; line-height: inherit; font-family: inherit; font-optical-sizing: inherit; font-kerning: inherit; font-feature-settings: inherit; font-variation-settings: inherit; margin: 0px; padding: 0px; vertical-align: initial; overflow-wrap: break-word; outline: none; user-select: text; -webkit-font-smoothing: none; height: 50px; left: 200px; opacity: 0; overflow: scroll; pointer-events: none; position: fixed; top: 0px; width: 50px; color: rgb(0, 0, 0); letter-spacing: normal; orphans: 2; text-align: start; text-indent: 0px; text-transform: none; widows: 2; word-spacing: 0px; -webkit-text-stroke-width: 0px; background-color: rgb(238, 238, 238); text-decoration-thickness: initial; text-decoration-style: initial; text-decoration-color: initial;&quot; lang=&quot;klingon&quot; tabindex=&quot;-1&quot; spellcheck=&quot;false&quot; data-gramm=&quot;false&quot; class=&quot;clipboard-data-container selectable hidden-input&quot;&gt;{&#10;  &quot;type&quot;: &quot;selection&quot;,&#10;  &quot;guid&quot;: &quot;34a2782a&quot;,&#10;  &quot;source&quot;: &quot;a2a00afc0&quot;,&#10;  &quot;data&quot;: {&#10;    &quot;nodes&quot;: [&#10;      {&#10;        &quot;id&quot;: &quot;328b6089&quot;,&#10;        &quot;x&quot;: 482,&#10;        &quot;y&quot;: 8,&#10;        &quot;width&quot;: 388,&#10;        &quot;height&quot;: 23,&#10;        &quot;rotation&quot;: 0,&#10;        &quot;transform&quot;: &quot;matrix(1 0 0 1 481.5 8)&quot;,&#10;        &quot;inspectables&quot;: {&#10;          &quot;width_policy&quot;: &quot;fixed&quot;,&#10;          &quot;height_policy&quot;: &quot;fixed&quot;,&#10;          &quot;foreground_color&quot;: &quot;rgba(96,96,96,0.4)&quot;,&#10;          &quot;color&quot;: &quot;rgb(96,96,96)&quot;,&#10;          &quot;color_selected&quot;: &quot;rgb(96,96,96)&quot;,&#10;          &quot;font_size&quot;: 16,&#10;          &quot;text_align&quot;: &quot;center&quot;,&#10;          &quot;opacity&quot;: 100,&#10;          &quot;bold&quot;: false,&#10;          &quot;italic&quot;: false,&#10;          &quot;underline&quot;: false,&#10;          &quot;strikethrough&quot;: false,&#10;          &quot;small_caps&quot;: false,&#10;          &quot;letter_spacing&quot;: 0,&#10;          &quot;font&quot;: &quot;Source Sans Pro&quot;,&#10;          &quot;font_weight&quot;: 300,&#10;          &quot;aspect_lock&quot;: false,&#10;          &quot;fe_dropshadow_enabled&quot;: false,&#10;          &quot;fe_dropshadow_opacity&quot;: 75,&#10;          &quot;fe_dropshadow_angle&quot;: 90,&#10;          &quot;fe_dropshadow_distance&quot;: 5,&#10;          &quot;fe_dropshadow_size&quot;: 5,&#10;          &quot;fe_dropshadow_color&quot;: &quot;rgb(0, 0, 0)&quot;,&#10;          &quot;fe_blur_enabled&quot;: false,&#10;          &quot;fe_blur_size&quot;: 5&#10;        },&#10;        &quot;text&quot;: &quot;Home, About, Shop, Help&quot;,&#10;        &quot;name&quot;: &quot;legacy-link-bar-menu&quot;,&#10;        &quot;link&quot;: null,&#10;        &quot;deps&quot;: {}&#10;      }&#10;    ],&#10;    &quot;hierarchy&quot;: {&#10;      &quot;328b6089&quot;: {&#10;        &quot;id&quot;: &quot;328b6089&quot;,&#10;        &quot;type&quot;: &quot;item&quot;,&#10;        &quot;locked&quot;: false,&#10;        &quot;link&quot;: null,&#10;        &quot;aspect_lock&quot;: false,&#10;        &quot;visible&quot;: true,&#10;        &quot;instance_name&quot;: &quot;Link Bar 1&quot;&#10;      }&#10;    },&#10;    &quot;idMapping&quot;: {&#10;      &quot;31ede79a&quot;: &quot;328b6089&quot;&#10;    },&#10;    &quot;size&quot;: {&#10;      &quot;width&quot;: 388,&#10;      &quot;height&quot;: 23&#10;    },&#10;    &quot;symbolInstances&quot;: {}&#10;  }&#10;}&lt;/pre&gt;" style="text;whiteSpace=wrap;html=1;fontSize=18;" vertex="1" parent="1">
                    <mxGeometry x="350" y="230" width="30" height="20" as="geometry"/>
                </mxCell>
                <mxCell id="180" value="" style="rounded=0;whiteSpace=wrap;html=1;fontSize=18;" vertex="1" parent="1">
                    <mxGeometry x="-800" y="144" width="1600" height="910" as="geometry"/>
                </mxCell>
                <mxCell id="181" value="Logout&amp;nbsp;" style="rounded=1;whiteSpace=wrap;html=1;fontSize=18;" vertex="1" parent="1">
                    <mxGeometry x="530" y="170" width="220" height="60" as="geometry"/>
                </mxCell>
                <mxCell id="182" value="Profile" style="rounded=1;whiteSpace=wrap;html=1;fontSize=18;" vertex="1" parent="1">
                    <mxGeometry x="290" y="170" width="220" height="60" as="geometry"/>
                </mxCell>
                <mxCell id="184" value="" style="html=1;verticalLabelPosition=bottom;align=center;labelBackgroundColor=#ffffff;verticalAlign=top;strokeWidth=2;strokeColor=#0080F0;shadow=0;dashed=0;shape=mxgraph.ios7.icons.add;fontSize=18;" vertex="1" parent="1">
                    <mxGeometry x="190" y="170" width="70" height="70" as="geometry"/>
                </mxCell>
                <mxCell id="185" value="" style="rounded=0;whiteSpace=wrap;html=1;fontSize=18;" vertex="1" parent="1">
                    <mxGeometry x="-205" y="269" width="480" height="320" as="geometry"/>
                </mxCell>
                <mxCell id="186" value="&lt;span style=&quot;font-size: 18px;&quot;&gt;&lt;b&gt;&lt;u&gt;Add Product&lt;/u&gt;&lt;/b&gt;&lt;/span&gt;" style="shape=ext;double=1;rounded=0;whiteSpace=wrap;html=1;" vertex="1" parent="1">
                    <mxGeometry x="-190" y="289" width="450" height="50" as="geometry"/>
                </mxCell>
                <mxCell id="187" value="" style="sketch=0;outlineConnect=0;fontColor=#232F3E;gradientColor=none;fillColor=#D45B07;strokeColor=none;dashed=0;verticalLabelPosition=bottom;verticalAlign=top;align=center;html=1;fontSize=12;fontStyle=0;aspect=fixed;pointerEvents=1;shape=mxgraph.aws4.container_registry_image;" vertex="1" parent="1">
                    <mxGeometry x="-190" y="358" width="170" height="170" as="geometry"/>
                </mxCell>
                <mxCell id="188" value="Product Details" style="rounded=1;whiteSpace=wrap;html=1;fontSize=18;arcSize=5;" vertex="1" parent="1">
                    <mxGeometry x="10" y="361" width="250" height="161" as="geometry"/>
                </mxCell>
                <mxCell id="195" value="Submit" style="rounded=1;whiteSpace=wrap;html=1;fontSize=18;" vertex="1" parent="1">
                    <mxGeometry x="14" y="543" width="106" height="36" as="geometry"/>
                </mxCell>
                <mxCell id="196" value="" style="rounded=0;whiteSpace=wrap;html=1;fontSize=18;" vertex="1" parent="1">
                    <mxGeometry x="-707.5" y="661" width="1420" height="140" as="geometry"/>
                </mxCell>
                <mxCell id="197" value="" style="sketch=0;outlineConnect=0;fontColor=#232F3E;gradientColor=none;fillColor=#D45B07;strokeColor=none;dashed=0;verticalLabelPosition=bottom;verticalAlign=top;align=center;html=1;fontSize=12;fontStyle=0;aspect=fixed;pointerEvents=1;shape=mxgraph.aws4.container_registry_image;" vertex="1" parent="1">
                    <mxGeometry x="-694.5" y="676" width="110" height="110" as="geometry"/>
                </mxCell>
                <mxCell id="198" value="Product Details" style="rounded=0;whiteSpace=wrap;html=1;fontSize=18;" vertex="1" parent="1">
                    <mxGeometry x="-554.5" y="676" width="1050" height="105" as="geometry"/>
                </mxCell>
                <mxCell id="200" value="Edit" style="rounded=1;whiteSpace=wrap;html=1;fontSize=18;" vertex="1" parent="1">
                    <mxGeometry x="544.5" y="676" width="120" height="45" as="geometry"/>
                </mxCell>
                <mxCell id="205" value="Delete" style="rounded=1;whiteSpace=wrap;html=1;fontSize=18;" vertex="1" parent="1">
                    <mxGeometry x="545.5" y="728" width="120" height="45" as="geometry"/>
                </mxCell>
                <mxCell id="207" value="Product 1" style="shape=hexagon;perimeter=hexagonPerimeter2;whiteSpace=wrap;html=1;fixedSize=1;fontSize=18;" vertex="1" parent="1">
                    <mxGeometry x="-714.5" y="600" width="200" height="40" as="geometry"/>
                </mxCell>
                <mxCell id="208" value="" style="rounded=0;whiteSpace=wrap;html=1;fontSize=18;" vertex="1" parent="1">
                    <mxGeometry x="-707.5" y="871" width="1420" height="140" as="geometry"/>
                </mxCell>
                <mxCell id="209" value="" style="sketch=0;outlineConnect=0;fontColor=#232F3E;gradientColor=none;fillColor=#D45B07;strokeColor=none;dashed=0;verticalLabelPosition=bottom;verticalAlign=top;align=center;html=1;fontSize=12;fontStyle=0;aspect=fixed;pointerEvents=1;shape=mxgraph.aws4.container_registry_image;" vertex="1" parent="1">
                    <mxGeometry x="-694.5" y="886" width="110" height="110" as="geometry"/>
                </mxCell>
                <mxCell id="210" value="Product Details" style="rounded=0;whiteSpace=wrap;html=1;fontSize=18;" vertex="1" parent="1">
                    <mxGeometry x="-554.5" y="886" width="1050" height="105" as="geometry"/>
                </mxCell>
                <mxCell id="211" value="Edit" style="rounded=1;whiteSpace=wrap;html=1;fontSize=18;" vertex="1" parent="1">
                    <mxGeometry x="544.5" y="886" width="120" height="45" as="geometry"/>
                </mxCell>
                <mxCell id="212" value="Delete" style="rounded=1;whiteSpace=wrap;html=1;fontSize=18;" vertex="1" parent="1">
                    <mxGeometry x="545.5" y="938" width="120" height="45" as="geometry"/>
                </mxCell>
                <mxCell id="213" value="Product 2" style="shape=hexagon;perimeter=hexagonPerimeter2;whiteSpace=wrap;html=1;fixedSize=1;fontSize=18;" vertex="1" parent="1">
                    <mxGeometry x="-714.5" y="810" width="200" height="40" as="geometry"/>
                </mxCell>
                <mxCell id="220" value="" style="edgeStyle=elbowEdgeStyle;elbow=vertical;endArrow=classic;html=1;curved=0;rounded=0;endSize=8;startSize=8;fontSize=18;exitX=0.364;exitY=0.54;exitDx=0;exitDy=0;exitPerimeter=0;entryX=0.5;entryY=0;entryDx=0;entryDy=0;" edge="1" parent="1" source="184" target="186">
                    <mxGeometry width="50" height="50" relative="1" as="geometry">
                        <mxPoint x="-520" y="430" as="sourcePoint"/>
                        <mxPoint x="-470" y="380" as="targetPoint"/>
                        <Array as="points">
                            <mxPoint x="-130" y="170"/>
                            <mxPoint x="-130" y="170"/>
                            <mxPoint x="-120" y="230"/>
                        </Array>
                    </mxGeometry>
                </mxCell>
            </root>
        </mxGraphModel>
    </diagram>
</mxfile>